{
    "asset" : {
        "generator" : "Khronos glTF Blender I/O v3.3.32",
        "version" : "2.0"
    },
    "scene" : 0,
    "scenes" : [
        {
            "name" : "Scene",
            "nodes" : [
                0
            ]
        }
    ],
    "nodes" : [
        {
            "mesh" : 0,
            "name" : "Cube"
        }
    ],
    "materials" : [
        {
            "doubleSided" : true,
            "name" : "main body.010",
            "pbrMetallicRoughness" : {
                "baseColorFactor" : [
                    0.800000011920929,
                    0.800000011920929,
                    0.800000011920929,
                    1
                ],
                "metallicFactor" : 0,
                "roughnessFactor" : 0.5
            }
        },
        {
            "doubleSided" : true,
            "name" : "main body",
            "pbrMetallicRoughness" : {
                "baseColorFactor" : [
                    0.0009105814970098436,
                    0,
                    0.025186864659190178,
                    1
                ],
                "metallicFactor" : 0,
                "roughnessFactor" : 0.5
            }
        },
        {
            "doubleSided" : true,
            "name" : "main body.009",
            "pbrMetallicRoughness" : {
                "baseColorFactor" : [
                    0.428690642118454,
                    0.2015562802553177,
                    0.17144113779067993,
                    1
                ],
                "metallicFactor" : 0,
                "roughnessFactor" : 0.5
            }
        },
        {
            "doubleSided" : true,
            "name" : "main body.008",
            "pbrMetallicRoughness" : {
                "baseColorFactor" : [
                    0.6038275361061096,
                    0.4396572709083557,
                    0.428690642118454,
                    1
                ],
                "metallicFactor" : 0,
                "roughnessFactor" : 0.5
            }
        }
    ],
    "meshes" : [
        {
            "name" : "Cube.009",
            "primitives" : [
                {
                    "attributes" : {
                        "POSITION" : 0,
                        "NORMAL" : 1,
                        "TEXCOORD_0" : 2
                    },
                    "indices" : 3,
                    "material" : 0
                },
                {
                    "attributes" : {
                        "POSITION" : 4,
                        "NORMAL" : 5,
                        "TEXCOORD_0" : 6
                    },
                    "indices" : 7,
                    "material" : 1
                },
                {
                    "attributes" : {
                        "POSITION" : 8,
                        "NORMAL" : 9,
                        "TEXCOORD_0" : 10
                    },
                    "indices" : 11,
                    "material" : 2
                },
                {
                    "attributes" : {
                        "POSITION" : 12,
                        "NORMAL" : 13,
                        "TEXCOORD_0" : 14
                    },
                    "indices" : 15,
                    "material" : 3
                }
            ]
        }
    ],
    "accessors" : [
        {
            "bufferView" : 0,
            "componentType" : 5126,
            "count" : 6826,
            "max" : [
                1.6204626560211182,
                4.2687811851501465,
                0.8333128094673157
            ],
            "min" : [
                -1.2235114574432373,
                0.8001173138618469,
                -0.6663769483566284
            ],
            "type" : "VEC3"
        },
        {
            "bufferView" : 1,
            "componentType" : 5126,
            "count" : 6826,
            "type" : "VEC3"
        },
        {
            "bufferView" : 2,
            "componentType" : 5126,
            "count" : 6826,
            "type" : "VEC2"
        },
        {
            "bufferView" : 3,
            "componentType" : 5123,
            "count" : 37386,
            "type" : "SCALAR"
        },
        {
            "bufferView" : 4,
            "componentType" : 5126,
            "count" : 2702,
            "max" : [
                1.2444994449615479,
                3.560631513595581,
                0.8332846164703369
            ],
            "min" : [
                -0.6546152234077454,
                0.9578067660331726,
                0.25190219283103943
            ],
            "type" : "VEC3"
        },
        {
            "bufferView" : 5,
            "componentType" : 5126,
            "count" : 2702,
            "type" : "VEC3"
        },
        {
            "bufferView" : 6,
            "componentType" : 5126,
            "count" : 2702,
            "type" : "VEC2"
        },
        {
            "bufferView" : 7,
            "componentType" : 5123,
            "count" : 9726,
            "type" : "SCALAR"
        },
        {
            "bufferView" : 8,
            "componentType" : 5126,
            "count" : 10886,
            "max" : [
                2.3358771800994873,
                4.472616672515869,
                0.749734103679657
            ],
            "min" : [
                -2.080686569213867,
                0.9394544959068298,
                -0.8539381623268127
            ],
            "type" : "VEC3"
        },
        {
            "bufferView" : 9,
            "componentType" : 5126,
            "count" : 10886,
            "type" : "VEC3"
        },
        {
            "bufferView" : 10,
            "componentType" : 5126,
            "count" : 10886,
            "type" : "VEC2"
        },
        {
            "bufferView" : 11,
            "componentType" : 5123,
            "count" : 58638,
            "type" : "SCALAR"
        },
        {
            "bufferView" : 12,
            "componentType" : 5126,
            "count" : 11679,
            "max" : [
                0.973635733127594,
                4.40219259262085,
                0.7305888533592224
            ],
            "min" : [
                -0.40760138630867004,
                0.9341571927070618,
                0.03502609580755234
            ],
            "type" : "VEC3"
        },
        {
            "bufferView" : 13,
            "componentType" : 5126,
            "count" : 11679,
            "type" : "VEC3"
        },
        {
            "bufferView" : 14,
            "componentType" : 5126,
            "count" : 11679,
            "type" : "VEC2"
        },
        {
            "bufferView" : 15,
            "componentType" : 5123,
            "count" : 61134,
            "type" : "SCALAR"
        }
    ],
    "bufferViews" : [
        {
            "buffer" : 0,
            "byteLength" : 81912,
            "byteOffset" : 0,
            "target" : 34962
        },
        {
            "buffer" : 0,
            "byteLength" : 81912,
            "byteOffset" : 81912,
            "target" : 34962
        },
        {
            "buffer" : 0,
            "byteLength" : 54608,
            "byteOffset" : 163824,
            "target" : 34962
        },
        {
            "buffer" : 0,
            "byteLength" : 74772,
            "byteOffset" : 218432,
            "target" : 34963
        },
        {
            "buffer" : 0,
            "byteLength" : 32424,
            "byteOffset" : 293204,
            "target" : 34962
        },
        {
            "buffer" : 0,
            "byteLength" : 32424,
            "byteOffset" : 325628,
            "target" : 34962
        },
        {
            "buffer" : 0,
            "byteLength" : 21616,
            "byteOffset" : 358052,
            "target" : 34962
        },
        {
            "buffer" : 0,
            "byteLength" : 19452,
            "byteOffset" : 379668,
            "target" : 34963
        },
        {
            "buffer" : 0,
            "byteLength" : 130632,
            "byteOffset" : 399120,
            "target" : 34962
        },
        {
            "buffer" : 0,
            "byteLength" : 130632,
            "byteOffset" : 529752,
            "target" : 34962
        },
        {
            "buffer" : 0,
            "byteLength" : 87088,
            "byteOffset" : 660384,
            "target" : 34962
        },
        {
            "buffer" : 0,
            "byteLength" : 117276,
            "byteOffset" : 747472,
            "target" : 34963
        },
        {
            "buffer" : 0,
            "byteLength" : 140148,
            "byteOffset" : 864748,
            "target" : 34962
        },
        {
            "buffer" : 0,
            "byteLength" : 140148,
            "byteOffset" : 1004896,
            "target" : 34962
        },
        {
            "buffer" : 0,
            "byteLength" : 93432,
            "byteOffset" : 1145044,
            "target" : 34962
        },
        {
            "buffer" : 0,
            "byteLength" : 122268,
            "byteOffset" : 1238476,
            "target" : 34963
        }
    ],
    "buffers" : [
        {
            "byteLength" : 1360744,
            "uri" : "data:application/octet-stream;base64,"
        }
    ]
}
