{
    "asset" : {
        "generator" : "Khronos glTF Blender I/O v3.3.32",
        "version" : "2.0"
    },
    "scene" : 0,
    "scenes" : [
        {
            "name" : "Scene",
            "nodes" : [
                0
            ]
        }
    ],
    "nodes" : [
        {
            "mesh" : 0,
            "name" : "Cube"
        }
    ],
    "materials" : [
        {
            "doubleSided" : true,
            "name" : "main body.010",
            "pbrMetallicRoughness" : {
                "baseColorFactor" : [
                    0.800000011920929,
                    0.800000011920929,
                    0.800000011920929,
                    1
                ],
                "metallicFactor" : 0,
                "roughnessFactor" : 0.5
            }
        },
        {
            "doubleSided" : true,
            "name" : "main body",
            "pbrMetallicRoughness" : {
                "baseColorFactor" : [
                    0.0009105814970098436,
                    0,
                    0.025186864659190178,
                    1
                ],
                "metallicFactor" : 0,
                "roughnessFactor" : 0.5
            }
        },
        {
            "doubleSided" : true,
            "name" : "main body.009",
            "pbrMetallicRoughness" : {
                "baseColorFactor" : [
                    0.428690642118454,
                    0.2015562802553177,
                    0.17144113779067993,
                    1
                ],
                "metallicFactor" : 0,
                "roughnessFactor" : 0.5
            }
        },
        {
            "doubleSided" : true,
            "name" : "main body.008",
            "pbrMetallicRoughness" : {
                "baseColorFactor" : [
                    0.6038275361061096,
                    0.4396572709083557,
                    0.428690642118454,
                    1
                ],
                "metallicFactor" : 0,
                "roughnessFactor" : 0.5
            }
        }
    ],
    "meshes" : [
        {
            "name" : "Cube.009",
            "primitives" : [
                {
                    "attributes" : {
                        "POSITION" : 0,
                        "NORMAL" : 1,
                        "TEXCOORD_0" : 2
                    },
                    "indices" : 3,
                    "material" : 0
                },
                {
                    "attributes" : {
                        "POSITION" : 4,
                        "NORMAL" : 5,
                        "TEXCOORD_0" : 6
                    },
                    "indices" : 7,
                    "material" : 1
                },
                {
                    "attributes" : {
                        "POSITION" : 8,
                        "NORMAL" : 9,
                        "TEXCOORD_0" : 10
                    },
                    "indices" : 11,
                    "material" : 2
                },
                {
                    "attributes" : {
                        "POSITION" : 12,
                        "NORMAL" : 13,
                        "TEXCOORD_0" : 14
                    },
                    "indices" : 15,
                    "material" : 3
                }
            ]
        }
    ],
    "accessors" : [
        {
            "bufferView" : 0,
            "componentType" : 5126,
            "count" : 6827,
            "max" : [
                1.2235115766525269,
                3.5570335388183594,
                0.6663767099380493
            ],
            "min" : [
                -1.6204626560211182,
                0.08836948871612549,
                -0.8333126306533813
            ],
            "type" : "VEC3"
        },
        {
            "bufferView" : 1,
            "componentType" : 5126,
            "count" : 6827,
            "type" : "VEC3"
        },
        {
            "bufferView" : 2,
            "componentType" : 5126,
            "count" : 6827,
            "type" : "VEC2"
        },
        {
            "bufferView" : 3,
            "componentType" : 5123,
            "count" : 37386,
            "type" : "SCALAR"
        },
        {
            "bufferView" : 4,
            "componentType" : 5126,
            "count" : 2702,
            "max" : [
                0.6546154618263245,
                2.848883628845215,
                -0.2519024610519409
            ],
            "min" : [
                -1.2444993257522583,
                0.24605894088745117,
                -0.8332844376564026
            ],
            "type" : "VEC3"
        },
        {
            "bufferView" : 5,
            "componentType" : 5126,
            "count" : 2702,
            "type" : "VEC3"
        },
        {
            "bufferView" : 6,
            "componentType" : 5126,
            "count" : 2702,
            "type" : "VEC2"
        },
        {
            "bufferView" : 7,
            "componentType" : 5123,
            "count" : 9726,
            "type" : "SCALAR"
        },
        {
            "bufferView" : 8,
            "componentType" : 5126,
            "count" : 10886,
            "max" : [
                2.080686569213867,
                3.760868787765503,
                0.8539375066757202
            ],
            "min" : [
                -2.3358774185180664,
                0.2277066707611084,
                -0.7497340440750122
            ],
            "type" : "VEC3"
        },
        {
            "bufferView" : 9,
            "componentType" : 5126,
            "count" : 10886,
            "type" : "VEC3"
        },
        {
            "bufferView" : 10,
            "componentType" : 5126,
            "count" : 10886,
            "type" : "VEC2"
        },
        {
            "bufferView" : 11,
            "componentType" : 5123,
            "count" : 58638,
            "type" : "SCALAR"
        },
        {
            "bufferView" : 12,
            "componentType" : 5126,
            "count" : 11683,
            "max" : [
                0.40760159492492676,
                3.6904449462890625,
                -0.03502620384097099
            ],
            "min" : [
                -0.9736356139183044,
                0.22240936756134033,
                -0.7305887937545776
            ],
            "type" : "VEC3"
        },
        {
            "bufferView" : 13,
            "componentType" : 5126,
            "count" : 11683,
            "type" : "VEC3"
        },
        {
            "bufferView" : 14,
            "componentType" : 5126,
            "count" : 11683,
            "type" : "VEC2"
        },
        {
            "bufferView" : 15,
            "componentType" : 5123,
            "count" : 61134,
            "type" : "SCALAR"
        }
    ],
    "bufferViews" : [
        {
            "buffer" : 0,
            "byteLength" : 81924,
            "byteOffset" : 0,
            "target" : 34962
        },
        {
            "buffer" : 0,
            "byteLength" : 81924,
            "byteOffset" : 81924,
            "target" : 34962
        },
        {
            "buffer" : 0,
            "byteLength" : 54616,
            "byteOffset" : 163848,
            "target" : 34962
        },
        {
            "buffer" : 0,
            "byteLength" : 74772,
            "byteOffset" : 218464,
            "target" : 34963
        },
        {
            "buffer" : 0,
            "byteLength" : 32424,
            "byteOffset" : 293236,
            "target" : 34962
        },
        {
            "buffer" : 0,
            "byteLength" : 32424,
            "byteOffset" : 325660,
            "target" : 34962
        },
        {
            "buffer" : 0,
            "byteLength" : 21616,
            "byteOffset" : 358084,
            "target" : 34962
        },
        {
            "buffer" : 0,
            "byteLength" : 19452,
            "byteOffset" : 379700,
            "target" : 34963
        },
        {
            "buffer" : 0,
            "byteLength" : 130632,
            "byteOffset" : 399152,
            "target" : 34962
        },
        {
            "buffer" : 0,
            "byteLength" : 130632,
            "byteOffset" : 529784,
            "target" : 34962
        },
        {
            "buffer" : 0,
            "byteLength" : 87088,
            "byteOffset" : 660416,
            "target" : 34962
        },
        {
            "buffer" : 0,
            "byteLength" : 117276,
            "byteOffset" : 747504,
            "target" : 34963
        },
        {
            "buffer" : 0,
            "byteLength" : 140196,
            "byteOffset" : 864780,
            "target" : 34962
        },
        {
            "buffer" : 0,
            "byteLength" : 140196,
            "byteOffset" : 1004976,
            "target" : 34962
        },
        {
            "buffer" : 0,
            "byteLength" : 93464,
            "byteOffset" : 1145172,
            "target" : 34962
        },
        {
            "buffer" : 0,
            "byteLength" : 122268,
            "byteOffset" : 1238636,
            "target" : 34963
        }
    ],
    "buffers" : [
        {
            "byteLength" : 1360904,
            "uri" : "data:application/octet-stream;base64,"
        }
    ]
}
